<svg xmlns="http://www.w3.org/2000/svg" xmlns:xlink="http://www.w3.org/1999/xlink" width="176" height="79" viewBox="0 0 176 79">
    <defs>
        <path id="prefix__a" d="M0 0.049L175.889 0.049 175.889 79 0 79z"/>
    </defs>
    <g fill="none" fill-rule="evenodd">
        <path fill="#010202" d="M15.366 48.906c-.78.13-1.487.126-2.119-.016-.632-.142-1.15-.385-1.552-.73-.403-.346-.74-.778-1.013-1.299-.273-.52-.468-1.065-.586-1.635-.118-.57-.177-1.173-.177-1.81 0-.755.1-1.509.298-2.262.198-.752.502-1.484.91-2.196.41-.711.98-1.325 1.711-1.844.73-.517 1.574-.856 2.528-1.017 1.152-.193 2.119-.098 2.9.283.78.383 1.325.914 1.635 1.592l-2.008 1.204c-.346-.448-.709-.759-1.087-.932-.378-.172-.858-.21-1.44-.112-.57.096-1.069.312-1.497.65-.427.337-.755.745-.985 1.226-.23.48-.396.975-.501 1.481-.106.508-.158 1.021-.158 1.54 0 1.156.27 2.125.808 2.907.54.782 1.316 1.088 2.333.918.99-.167 1.822-.837 2.49-2.01l2.063.396c-.904 2.086-2.422 3.308-4.553 3.666M26.92 44.867c.625-.1 1.179-.323 1.66-.672.482-.347.857-.764 1.124-1.248.267-.484.466-.98.596-1.491.13-.51.196-1.018.196-1.525 0-.542-.066-1.047-.196-1.515-.13-.468-.329-.9-.596-1.292-.267-.394-.638-.682-1.113-.866-.476-.183-1.033-.224-1.672-.122-.833.133-1.53.482-2.09 1.049-.56.566-.948 1.18-1.164 1.838-.214.659-.322 1.341-.322 2.049 0 .53.066 1.032.195 1.506.13.474.33.908.597 1.302.267.393.638.682 1.114.864.475.184 1.032.225 1.67.123m0 2.032c-.847.135-1.615.135-2.306-.003-.69-.137-1.26-.379-1.71-.726-.449-.346-.827-.772-1.133-1.277-.306-.505-.525-1.045-.654-1.62-.131-.573-.197-1.178-.197-1.815 0-.636.066-1.262.197-1.878.129-.616.348-1.225.654-1.828.306-.602.684-1.149 1.133-1.638.45-.49 1.02-.914 1.71-1.272.69-.357 1.46-.604 2.306-.739 1.056-.168 1.984-.13 2.785.113.801.244 1.427.644 1.876 1.203.45.559.785 1.186 1.007 1.882.221.694.332 1.442.332 2.244 0 .8-.11 1.585-.332 2.35-.222.767-.557 1.5-1.007 2.202-.45.702-1.075 1.303-1.876 1.802-.801.499-1.73.832-2.785 1M45.92 44.192l-2.005.362-5.33-7.366c-.172-.233-.35-.527-.534-.883.037.294.056.618.056.97v8.33L35.919 46V32.807l2.132-.385 5.203 7.258c.122.166.3.467.533.902-.037-.333-.055-.662-.055-.989v-8.198L45.919 31v13.192zM52.363 43L47.92 30.953l2.35-.417 2.859 8.166c.158.522.267.894.328 1.115.048-.265.152-.675.31-1.228l2.84-9.178L58.92 29l-4.425 13.622-2.13.378zM60.919 41L60.919 28.443 69.506 27 69.506 29.028 63.179 30.091 63.179 33.122 67.076 32.467 67.076 34.495 63.179 35.149 63.179 38.594 69.919 37.461 69.919 39.488zM75.142 31.473l3.555-.623c.667-.116 1.154-.374 1.463-.771.309-.397.463-.86.463-1.387 0-.515-.148-.922-.445-1.22-.296-.297-.79-.385-1.481-.264l-3.555.623v3.642zM72.919 39V26.122l5.741-1.006c1.494-.26 2.577-.082 3.25.535.673.618 1.01 1.498 1.01 2.639 0 .797-.23 1.585-.686 2.364-.457.779-1.117 1.373-1.981 1.782l2.593 4.826-2.5.438-2.5-4.603-2.704.473v5.04l-2.223.39zM90.096 35.904c-1.255.2-2.337.087-3.245-.342-.909-.428-1.552-1.109-1.932-2.042l2.177-1.074c.287.534.699.932 1.235 1.195.536.264 1.15.34 1.844.23.718-.115 1.29-.354 1.715-.717.425-.363.638-.823.638-1.379 0-.224-.06-.425-.177-.601-.118-.177-.252-.317-.402-.424-.15-.105-.376-.2-.677-.282-.3-.082-.555-.145-.764-.188-.21-.044-.517-.092-.922-.146-.523-.082-.925-.148-1.206-.198-.28-.05-.64-.149-1.078-.298-.438-.149-.772-.317-1-.505-.229-.188-.431-.455-.608-.8-.176-.343-.264-.74-.264-1.189 0-.946.405-1.802 1.215-2.57.81-.768 1.908-1.262 3.294-1.483 1.15-.183 2.105-.09 2.863.28s1.268.93 1.53 1.68l-2.118.976c-.419-.785-1.229-1.08-2.432-.889-.614.098-1.094.29-1.44.575-.347.286-.52.642-.52 1.067 0 .284.133.517.401.699.268.182.556.304.863.368.307.063.762.135 1.363.216.392.068.689.119.892.15.202.034.487.098.853.193.365.096.653.188.863.28.21.09.447.22.715.39.268.17.474.36.618.567.144.207.268.46.372.756.105.297.157.628.157.995 0 1.159-.454 2.144-1.362 2.957-.909.813-2.063 1.33-3.461 1.553M103.813 28.881l-1.443-3.585c-.188-.43-.332-.838-.432-1.222-.1.37-.244.827-.431 1.37l-1.463 4.084 3.77-.647zm1.744 4.465l-1.031-2.616-5.194.892-1.032 2.97-2.38.408 4.893-13.617 2.232-.383 4.874 11.94-2.362.406zM113.077 21.779L113.077 32.608 110.761 33 110.761 22.17 106.919 22.82 106.919 20.691 116.919 19 116.919 21.129zM119.919 31L119.919 18.382 121.919 18 121.919 30.618zM130.92 26.867c.625-.1 1.179-.323 1.66-.672.482-.347.857-.764 1.124-1.248.267-.484.466-.98.596-1.49.13-.51.196-1.02.196-1.526 0-.542-.066-1.047-.196-1.515-.13-.468-.329-.9-.596-1.292-.267-.394-.638-.682-1.113-.866-.476-.183-1.033-.224-1.672-.122-.833.133-1.53.482-2.09 1.049-.56.566-.948 1.18-1.164 1.838-.214.659-.322 1.341-.322 2.049 0 .53.066 1.032.195 1.506.13.474.329.908.597 1.302.266.393.638.682 1.114.864.475.184 1.032.225 1.67.123m0 2.032c-.847.135-1.615.135-2.306-.003-.69-.137-1.26-.379-1.71-.726-.449-.346-.827-.772-1.133-1.277-.306-.505-.525-1.045-.655-1.62-.13-.573-.196-1.178-.196-1.815 0-.636.066-1.262.196-1.878.13-.616.349-1.225.655-1.828.306-.602.684-1.149 1.133-1.638.45-.49 1.02-.914 1.71-1.272.69-.357 1.46-.604 2.306-.739 1.056-.168 1.984-.13 2.785.113.801.244 1.427.644 1.876 1.203.45.559.785 1.186 1.007 1.882.221.694.332 1.442.332 2.244 0 .8-.111 1.585-.332 2.35-.222.767-.557 1.5-1.007 2.202-.45.702-1.075 1.303-1.876 1.802-.801.499-1.73.832-2.785 1M148.92 26.192l-2.005.362-5.33-7.366c-.172-.233-.35-.527-.534-.883.037.295.056.618.056.97v8.33l-2.188.395V14.808l2.132-.386 5.203 7.258c.122.166.3.467.533.902-.037-.333-.055-.662-.055-.989v-8.198l2.187-.395v13.192zM157.096 24.904c-1.255.2-2.337.087-3.245-.342-.909-.428-1.552-1.109-1.932-2.041l2.177-1.075c.287.534.699.932 1.235 1.195.536.264 1.15.34 1.844.23.718-.115 1.29-.354 1.715-.717.425-.363.638-.823.638-1.379 0-.224-.06-.425-.177-.601-.118-.176-.252-.317-.402-.424-.15-.105-.376-.2-.677-.282-.3-.082-.555-.145-.764-.188-.21-.044-.517-.092-.922-.146-.523-.082-.925-.148-1.206-.198-.28-.05-.64-.149-1.078-.298-.438-.149-.771-.317-1-.505-.229-.188-.431-.454-.608-.8-.176-.343-.264-.74-.264-1.189 0-.946.405-1.802 1.215-2.57.811-.768 1.909-1.262 3.294-1.483 1.15-.183 2.105-.09 2.863.28s1.268.93 1.53 1.68l-2.118.976c-.419-.785-1.229-1.08-2.432-.889-.614.098-1.094.29-1.44.575-.347.286-.52.642-.52 1.068 0 .283.133.516.402.698.267.182.555.304.862.368.307.063.762.135 1.363.216.392.068.69.119.892.15.202.034.487.098.853.193.366.096.653.188.863.28.21.09.447.22.715.39.268.17.474.36.618.567.144.207.268.46.372.756.105.297.157.628.157.995 0 1.159-.454 2.144-1.362 2.957-.909.813-2.062 1.33-3.46 1.553" transform="translate(-1)"/>
        <g transform="translate(-1) translate(.92)">
            <mask id="prefix__b" fill="#fff">
                <use xlink:href="#prefix__a"/>
            </mask>
            <path fill="#010202" d="M2.272 59.389l28.046-4.818v12.013l14.186-14.45 121.82-20.925V2.715L2.271 30.895V59.39zM175.89 11.085l-.016.126v30.626L53.482 62.862 37.637 79l-9.442-7.062-.108.11v-4.824L9.592 70.401 0 62.03l.04-.01V29.005L168.554.058v-.01l7.337 11.037zM41.997 15.39l-.466-4.08-1.909.328 1.491 7.19 1.69-.29 1.49-7.702-1.759.302-.537 4.252zm-5.809-1.532c0-.1-.036-.171-.108-.215-.072-.043-.158-.057-.256-.04-.105.018-.193.061-.265.13-.073.068-.109.152-.109.252v4.186c0 .1.036.17.109.214.072.044.16.056.265.039.098-.018.184-.06.256-.128.072-.069.108-.153.108-.252v-4.186zm1.663-.98c.112.176.168.357.168.544v4.43c0 .185-.056.386-.168.6-.111.215-.266.419-.462.61-.197.192-.428.362-.694.51-.265.149-.556.25-.87.304-.315.054-.607.053-.877-.004-.269-.056-.501-.146-.698-.27-.197-.125-.351-.275-.463-.451-.111-.177-.167-.358-.167-.544v-4.43c0-.186.056-.386.167-.601.112-.215.266-.418.463-.61s.43-.362.698-.511c.27-.149.562-.25.876-.304.315-.054.606-.053.871.004.266.057.497.147.694.272.196.124.35.274.462.45zm-9.336 4.065l-.754-3.267-2.483.426v7.446l1.576-.271v-4.747l.946 4.584 1.107-.19 1.108-4.927v4.737l1.758-.302v-7.445l-2.522.433-.736 3.523zm26.702-4.587l-.754-3.267-2.483.427v7.445l1.576-.27v-4.747l.945 4.584 1.108-.19 1.107-4.928v4.737l1.758-.302V8.4l-2.521.433-.736 3.523zm8.107-3.077c0-.198-.101-.28-.304-.245l-.44.075v1.601l.44-.075c.203-.035.304-.149.304-.342V9.278zm0 2.969c0-.106-.026-.175-.08-.21-.055-.034-.13-.042-.224-.026l-.44.076v1.647l.44-.076c.203-.035.304-.151.304-.35v-1.061zm1.505-4.19c.099.153.148.347.148.584v1.433c0 .173-.058.346-.172.518-.115.172-.286.327-.516.466.23.06.401.154.516.283.114.13.172.284.172.464v1.564c0 .235-.05.447-.148.635-.099.187-.23.35-.392.49s-.347.254-.553.342c-.208.088-.416.15-.626.187l-2.435.418V7.995l2.435-.418c.21-.036.418-.045.626-.028.206.017.391.068.553.151.163.084.293.203.392.356zm2.585 6.252l3.527-.606v-1.415l-1.734.298v-1.694l1.15-.197V9.28l-1.15.198V7.877l1.734-.298V6.257l-3.527.606v7.446zm-21.22 3.645l3.528-.606v-1.415l-1.734.298v-1.694l1.149-.197v-1.415l-1.15.197v-1.6l1.735-.298V9.902l-3.527.606v7.446zm34.55-12.05c0 .35-.121.664-.364.942-.243.278-.544.448-.904.51-.359.062-.66-.005-.903-.2-.242-.194-.364-.466-.364-.817 0-.35.122-.664.364-.942.243-.279.544-.448.903-.51.36-.061.66.005.904.2.243.194.364.467.364.817zm-2.335.4c0 .301.102.534.305.699.202.165.457.222.762.169.306-.052.559-.196.76-.43.2-.235.302-.503.302-.803 0-.3-.101-.532-.301-.697-.202-.164-.455-.22-.76-.168-.306.053-.56.197-.763.431-.203.236-.305.502-.305.8zm.536.635V5.497l.724-.125c.133-.023.234.003.303.078.069.074.103.164.103.268 0 .105-.033.206-.1.302-.066.097-.156.163-.268.198l.357.529-.251.043-.333-.53-.308.054V6.9l-.227.04zm.227-.816l.504-.087c.054-.01.097-.04.13-.092.032-.052.048-.112.048-.18 0-.055-.015-.102-.046-.142-.032-.04-.076-.056-.132-.047l-.504.088v.46zm-3.586-.664c.21-.036.418-.045.625-.028.208.018.392.068.555.152.162.083.292.202.391.356.099.154.148.348.148.584v1.62c0 .18-.057.374-.172.583-.115.21-.283.382-.506.52.153.575.282 1.048.387 1.417.105.37.188.67.248.898.06.228.108.397.143.506.036.109.061.19.077.247.015.057.028.097.038.124.01.026.024.068.043.127l-1.662.286-.583-2.86-.43.074v2.96l-1.757.302V5.88l2.455-.422zm-.239 3.206c.197-.034.296-.15.296-.349V7.162c0-.198-.099-.28-.296-.247l-.458.08v1.749l.458-.08zm-54.43 11.259l-.001.003c.007.063-.043.123-.085.148-.96.568-1.984 1.142-2.948 1.7-.055.032-.12.048-.183.056-.057.013-.114.016-.168.016-.283-.001-.562-.027-.846-.027-.673 0-1.274-.109-1.963-.003l-.085.015c-.09.018-.18.034-.271.05-.496.09-.991.149-1.49.218 0 0-.154.018-.223.002-.701-.167-1.4-.34-2.1-.508-.022-.005-.046-.006-.073-.003h-.003c-.028.006-.051.016-.073.029-.701.408-1.4.821-2.101 1.23-.07.039-.222.073-.222.073-.57.117-1.134.245-1.7.327-.742.109-1.448.466-2.17.713-.283.096-.563.219-.845.317-.094.033-.203.059-.289.038l-.213-.05c-.894-.21-1.786-.426-2.676-.647-.042-.01-.092-.053-.085-.12L.103 23.5c0-.012 0-.026.003-.043.168-1.002 0 0 .529-2.9.098-.537.194-.975.245-1.12.002-.013.02-.044.02-.044.016-.021.04-.038.066-.042.045-.008.083.02.088.065l.002.024.152 1.626c.008.098.083.61.192.694.087.066.233.159.417.276l.212.135c.075.048.16.065.251.05.104-.019.196-.074.252-.116.208-.186.498-.44.828-.727l-.003.001.027-.022.658-.57c1.018-.927 2.033-1.933 3.166-2.462.43-.201.853-.274 1.248-.262.12 0 .207.01.254.016.23.021.424.07.59.132.501.162.799.527 1.18.661l.06-.01c.381-.265.679-.732 1.18-1.066.166-.12.359-.235.59-.335.047-.023.135-.062.253-.104.396-.147.818-.22 1.249-.166 1.132.14 2.147.797 3.166 1.374.227.118.45.234.658.344l.027.012h-.003c.33.174.62.329.828.444.056.021.148.045.251.028.092-.016.177-.062.252-.136l.211-.208c.185-.18.33-.323.417-.419.11-.12.185-.66.193-.76.005-.071.139-1.533.152-1.678l.002-.024c.005-.047.042-.088.088-.096.026-.005.05.003.066.02 0 0 .018.024.02.037.05.127.146.532.245 1.036.528 2.718.36 1.773.528 2.718.003.016.004.03.004.042z" mask="url(#prefix__b)"/>
        </g>
    </g>
</svg>
