<?xml version="1.0" encoding="utf-8"?>
<!-- Generator: Adobe Illustrator 24.2.3, SVG Export Plug-In . SVG Version: 6.00 Build 0)  -->
<svg version="1.1" id="Layer_1" xmlns="http://www.w3.org/2000/svg" xmlns:xlink="http://www.w3.org/1999/xlink" x="0px" y="0px"
	 viewBox="0 0 110 61" style="enable-background:new 0 0 110 61;" xml:space="preserve">
<style type="text/css">
	.st0{fill-rule:evenodd;clip-rule:evenodd;fill:#FBDB83;}
	.st1{fill-rule:evenodd;clip-rule:evenodd;fill:#EEEEEE;}
	.st2{clip-path:url(#SVGID_2_);fill-rule:evenodd;clip-rule:evenodd;fill:#010202;}
	.st3{fill-rule:evenodd;clip-rule:evenodd;fill:#010202;}
	.st4{fill:none;stroke:#010202;stroke-width:3;stroke-miterlimit:10;}
</style>
<polygon class="st0" points="2.2,39.2 19.2,36.4 19.2,48.4 33.4,33.9 45.2,31 45.2,2.6 2.2,10.7 2.2,39.2 "/>
<polyline class="st1" points="88.6,34 100.4,31.1 100.4,2.7 57.3,10.9 57.4,39.3 57.4,39.3 74.4,36.5 "/>
<g>
	<defs>
		<path id="SVGID_1_" d="M88.6,34l11.8-2.9V2.7l-43.1,8.2l0.1,28.4l0,0l17-2.8 M64.7,50.4L55.1,42l0,0V9l47.6-9l0,0l7.3,11l0,0v0.1
			v30.6"/>
	</defs>
	<clipPath id="SVGID_2_">
		<use xlink:href="#SVGID_1_"  style="overflow:visible;"/>
	</clipPath>
	<rect x="71.5" y="-20.7" class="st2" width="54.2" height="90.1"/>
</g>
<path class="st3" d="M2.3,39.3l17-2.8v12L33.5,34l11.8-2.9V2.7l-43,8.1L2.3,39.3L2.3,39.3z M54.9,11v0.1v30.6l-12.4,3L26.6,61
	l-9.4-7.1L17.1,54v-4.8l-7.5,1.2L0,42l0,0V9l47.6-9l0,0L54.9,11L54.9,11z"/>
<path class="st3" d="M36.6,14.7l-28,5v-2.1l28-5V14.7z"/>
<path class="st3" d="M36.6,19.3l-28,5v-2.1l28-5V19.3z"/>
<path class="st3" d="M36.6,24.3l-28,5v-2.1l28-5V24.3z"/>
<polyline class="st4" points="138.1,13.1 121.8,22.2 138.1,26.3 "/>
<line class="st4" x1="93.7" y1="10" x2="79.3" y2="28.6"/>
<line class="st4" x1="79.3" y1="12.6" x2="93.7" y2="26.1"/>
</svg>
